<mxfile host="app.diagrams.net" modified="2023-05-22T10:54:57.662Z" agent="Mozilla/5.0 (Windows NT 10.0; Win64; x64) AppleWebKit/537.36 (KHTML, like Gecko) Chrome/113.0.0.0 Safari/537.36" etag="hOYYY2pipzGc9Ghj7lQZ" version="21.3.2" type="device">
  <diagram name="Page-1" id="efa7a0a1-bf9b-a30e-e6df-94a7791c09e9">
    <mxGraphModel dx="1647" dy="868" grid="1" gridSize="10" guides="1" tooltips="1" connect="1" arrows="1" fold="1" page="1" pageScale="1" pageWidth="826" pageHeight="1169" background="none" math="0" shadow="0">
      <root>
        <mxCell id="0" />
        <mxCell id="1" parent="0" />
        <mxCell id="v_NWAlwMlRV0HYTp9SGS-258" value="" style="edgeStyle=orthogonalEdgeStyle;rounded=0;orthogonalLoop=1;jettySize=auto;html=1;entryX=1;entryY=0.5;entryDx=0;entryDy=0;endArrow=none;endFill=0;exitX=1;exitY=0.5;exitDx=0;exitDy=0;" parent="1" source="v_NWAlwMlRV0HYTp9SGS-128" target="v_NWAlwMlRV0HYTp9SGS-272" edge="1">
          <mxGeometry relative="1" as="geometry">
            <Array as="points">
              <mxPoint x="1122" y="209" />
              <mxPoint x="1122" y="503" />
            </Array>
          </mxGeometry>
        </mxCell>
        <mxCell id="v_NWAlwMlRV0HYTp9SGS-268" value="0..*" style="edgeLabel;html=1;align=center;verticalAlign=middle;resizable=0;points=[];" parent="v_NWAlwMlRV0HYTp9SGS-258" vertex="1" connectable="0">
          <mxGeometry x="0.2113" relative="1" as="geometry">
            <mxPoint y="96" as="offset" />
          </mxGeometry>
        </mxCell>
        <mxCell id="v_NWAlwMlRV0HYTp9SGS-269" value="1" style="edgeLabel;html=1;align=center;verticalAlign=middle;resizable=0;points=[];" parent="v_NWAlwMlRV0HYTp9SGS-258" vertex="1" connectable="0">
          <mxGeometry x="-0.7056" y="2" relative="1" as="geometry">
            <mxPoint x="-2" y="-12" as="offset" />
          </mxGeometry>
        </mxCell>
        <mxCell id="v_NWAlwMlRV0HYTp9SGS-127" value="tml.FlockPeriod" style="swimlane;fontStyle=0;childLayout=stackLayout;horizontal=1;startSize=26;fillColor=none;horizontalStack=0;resizeParent=1;resizeParentMax=0;resizeLast=0;collapsible=1;marginBottom=0;whiteSpace=wrap;html=1;" parent="1" vertex="1">
          <mxGeometry x="872.09" y="170" width="220" height="130" as="geometry" />
        </mxCell>
        <mxCell id="v_NWAlwMlRV0HYTp9SGS-128" value="+ ID: Guid" style="text;strokeColor=none;fillColor=none;align=left;verticalAlign=top;spacingLeft=4;spacingRight=4;overflow=hidden;rotatable=0;points=[[0,0.5],[1,0.5]];portConstraint=eastwest;whiteSpace=wrap;html=1;" parent="v_NWAlwMlRV0HYTp9SGS-127" vertex="1">
          <mxGeometry y="26" width="220" height="26" as="geometry" />
        </mxCell>
        <mxCell id="v_NWAlwMlRV0HYTp9SGS-129" value="+ startDayInFlock: Int32" style="text;strokeColor=none;fillColor=none;align=left;verticalAlign=top;spacingLeft=4;spacingRight=4;overflow=hidden;rotatable=0;points=[[0,0.5],[1,0.5]];portConstraint=eastwest;whiteSpace=wrap;html=1;" parent="v_NWAlwMlRV0HYTp9SGS-127" vertex="1">
          <mxGeometry y="52" width="220" height="26" as="geometry" />
        </mxCell>
        <mxCell id="v_NWAlwMlRV0HYTp9SGS-244" value="+ endDayInFlock: Int32" style="text;strokeColor=none;fillColor=none;align=left;verticalAlign=top;spacingLeft=4;spacingRight=4;overflow=hidden;rotatable=0;points=[[0,0.5],[1,0.5]];portConstraint=eastwest;whiteSpace=wrap;html=1;" parent="v_NWAlwMlRV0HYTp9SGS-127" vertex="1">
          <mxGeometry y="78" width="220" height="26" as="geometry" />
        </mxCell>
        <mxCell id="v_NWAlwMlRV0HYTp9SGS-273" value="+ flockSchemaID: Guid" style="text;strokeColor=none;fillColor=none;align=left;verticalAlign=top;spacingLeft=4;spacingRight=4;overflow=hidden;rotatable=0;points=[[0,0.5],[1,0.5]];portConstraint=eastwest;whiteSpace=wrap;html=1;" parent="v_NWAlwMlRV0HYTp9SGS-127" vertex="1">
          <mxGeometry y="104" width="220" height="26" as="geometry" />
        </mxCell>
        <mxCell id="v_NWAlwMlRV0HYTp9SGS-259" style="edgeStyle=orthogonalEdgeStyle;rounded=0;orthogonalLoop=1;jettySize=auto;html=1;entryX=0;entryY=0.5;entryDx=0;entryDy=0;endArrow=none;endFill=0;exitX=0;exitY=0.5;exitDx=0;exitDy=0;" parent="1" edge="1">
          <mxGeometry relative="1" as="geometry">
            <mxPoint x="872.09" y="70" as="sourcePoint" />
            <mxPoint x="872.09" y="288" as="targetPoint" />
            <Array as="points">
              <mxPoint x="842.09" y="70" />
              <mxPoint x="842.09" y="288" />
            </Array>
          </mxGeometry>
        </mxCell>
        <mxCell id="v_NWAlwMlRV0HYTp9SGS-270" value="1" style="edgeLabel;html=1;align=center;verticalAlign=middle;resizable=0;points=[];" parent="v_NWAlwMlRV0HYTp9SGS-259" vertex="1" connectable="0">
          <mxGeometry x="-0.7004" relative="1" as="geometry">
            <mxPoint y="-2" as="offset" />
          </mxGeometry>
        </mxCell>
        <mxCell id="v_NWAlwMlRV0HYTp9SGS-271" value="0..*" style="edgeLabel;html=1;align=center;verticalAlign=middle;resizable=0;points=[];" parent="v_NWAlwMlRV0HYTp9SGS-259" vertex="1" connectable="0">
          <mxGeometry x="0.3247" relative="1" as="geometry">
            <mxPoint y="46" as="offset" />
          </mxGeometry>
        </mxCell>
        <mxCell id="v_NWAlwMlRV0HYTp9SGS-131" value="tml.FlockSchema" style="swimlane;fontStyle=0;childLayout=stackLayout;horizontal=1;startSize=26;fillColor=none;horizontalStack=0;resizeParent=1;resizeParentMax=0;resizeLast=0;collapsible=1;marginBottom=0;whiteSpace=wrap;html=1;" parent="1" vertex="1">
          <mxGeometry x="872.09" y="30" width="220" height="104" as="geometry" />
        </mxCell>
        <mxCell id="v_NWAlwMlRV0HYTp9SGS-132" value="+ ID: Guid" style="text;strokeColor=none;fillColor=none;align=left;verticalAlign=top;spacingLeft=4;spacingRight=4;overflow=hidden;rotatable=0;points=[[0,0.5],[1,0.5]];portConstraint=eastwest;whiteSpace=wrap;html=1;" parent="v_NWAlwMlRV0HYTp9SGS-131" vertex="1">
          <mxGeometry y="26" width="220" height="26" as="geometry" />
        </mxCell>
        <mxCell id="v_NWAlwMlRV0HYTp9SGS-133" value="+ houseNumber: Int32" style="text;strokeColor=none;fillColor=none;align=left;verticalAlign=top;spacingLeft=4;spacingRight=4;overflow=hidden;rotatable=0;points=[[0,0.5],[1,0.5]];portConstraint=eastwest;whiteSpace=wrap;html=1;" parent="v_NWAlwMlRV0HYTp9SGS-131" vertex="1">
          <mxGeometry y="52" width="220" height="26" as="geometry" />
        </mxCell>
        <mxCell id="03mVUAZCUNcmOk86Cycl-1" value="+ AccountId: Int32&lt;br&gt;" style="text;strokeColor=none;fillColor=none;align=left;verticalAlign=top;spacingLeft=4;spacingRight=4;overflow=hidden;rotatable=0;points=[[0,0.5],[1,0.5]];portConstraint=eastwest;whiteSpace=wrap;html=1;" parent="v_NWAlwMlRV0HYTp9SGS-131" vertex="1">
          <mxGeometry y="78" width="220" height="26" as="geometry" />
        </mxCell>
        <mxCell id="v_NWAlwMlRV0HYTp9SGS-257" style="edgeStyle=orthogonalEdgeStyle;rounded=0;orthogonalLoop=1;jettySize=auto;html=1;entryX=1;entryY=0.5;entryDx=0;entryDy=0;endArrow=none;endFill=0;exitX=0;exitY=0.5;exitDx=0;exitDy=0;" parent="1" source="v_NWAlwMlRV0HYTp9SGS-136" target="v_NWAlwMlRV0HYTp9SGS-279" edge="1">
          <mxGeometry relative="1" as="geometry">
            <Array as="points">
              <mxPoint x="810" y="399" />
            </Array>
          </mxGeometry>
        </mxCell>
        <mxCell id="v_NWAlwMlRV0HYTp9SGS-260" value="0..*" style="edgeLabel;html=1;align=center;verticalAlign=middle;resizable=0;points=[];" parent="v_NWAlwMlRV0HYTp9SGS-257" vertex="1" connectable="0">
          <mxGeometry x="0.3111" y="1" relative="1" as="geometry">
            <mxPoint x="1" as="offset" />
          </mxGeometry>
        </mxCell>
        <mxCell id="v_NWAlwMlRV0HYTp9SGS-267" value="1" style="edgeLabel;html=1;align=center;verticalAlign=middle;resizable=0;points=[];" parent="v_NWAlwMlRV0HYTp9SGS-257" vertex="1" connectable="0">
          <mxGeometry x="-0.7486" y="1" relative="1" as="geometry">
            <mxPoint y="6" as="offset" />
          </mxGeometry>
        </mxCell>
        <mxCell id="v_NWAlwMlRV0HYTp9SGS-135" value="tml.DayTimeLine" style="swimlane;fontStyle=0;childLayout=stackLayout;horizontal=1;startSize=26;fillColor=none;horizontalStack=0;resizeParent=1;resizeParentMax=0;resizeLast=0;collapsible=1;marginBottom=0;whiteSpace=wrap;html=1;" parent="1" vertex="1">
          <mxGeometry x="872.09" y="360" width="220" height="156" as="geometry" />
        </mxCell>
        <mxCell id="v_NWAlwMlRV0HYTp9SGS-136" value="+ ID: Guid" style="text;strokeColor=none;fillColor=none;align=left;verticalAlign=top;spacingLeft=4;spacingRight=4;overflow=hidden;rotatable=0;points=[[0,0.5],[1,0.5]];portConstraint=eastwest;whiteSpace=wrap;html=1;" parent="v_NWAlwMlRV0HYTp9SGS-135" vertex="1">
          <mxGeometry y="26" width="220" height="26" as="geometry" />
        </mxCell>
        <mxCell id="v_NWAlwMlRV0HYTp9SGS-138" value="+ animalType: enum" style="text;strokeColor=none;fillColor=none;align=left;verticalAlign=top;spacingLeft=4;spacingRight=4;overflow=hidden;rotatable=0;points=[[0,0.5],[1,0.5]];portConstraint=eastwest;whiteSpace=wrap;html=1;" parent="v_NWAlwMlRV0HYTp9SGS-135" vertex="1">
          <mxGeometry y="52" width="220" height="26" as="geometry" />
        </mxCell>
        <mxCell id="v_NWAlwMlRV0HYTp9SGS-180" value="+ lineColorDefault: string" style="text;strokeColor=none;fillColor=none;align=left;verticalAlign=top;spacingLeft=4;spacingRight=4;overflow=hidden;rotatable=0;points=[[0,0.5],[1,0.5]];portConstraint=eastwest;whiteSpace=wrap;html=1;" parent="v_NWAlwMlRV0HYTp9SGS-135" vertex="1">
          <mxGeometry y="78" width="220" height="26" as="geometry" />
        </mxCell>
        <mxCell id="v_NWAlwMlRV0HYTp9SGS-217" value="+ timeLineTypeID: Guid" style="text;strokeColor=none;fillColor=none;align=left;verticalAlign=top;spacingLeft=4;spacingRight=4;overflow=hidden;rotatable=0;points=[[0,0.5],[1,0.5]];portConstraint=eastwest;whiteSpace=wrap;html=1;" parent="v_NWAlwMlRV0HYTp9SGS-135" vertex="1">
          <mxGeometry y="104" width="220" height="26" as="geometry" />
        </mxCell>
        <mxCell id="v_NWAlwMlRV0HYTp9SGS-272" value="+ flockPeriodID: Guid" style="text;strokeColor=none;fillColor=none;align=left;verticalAlign=top;spacingLeft=4;spacingRight=4;overflow=hidden;rotatable=0;points=[[0,0.5],[1,0.5]];portConstraint=eastwest;whiteSpace=wrap;html=1;" parent="v_NWAlwMlRV0HYTp9SGS-135" vertex="1">
          <mxGeometry y="130" width="220" height="26" as="geometry" />
        </mxCell>
        <mxCell id="v_NWAlwMlRV0HYTp9SGS-208" value="tml.Event" style="swimlane;fontStyle=0;childLayout=stackLayout;horizontal=1;startSize=26;fillColor=none;horizontalStack=0;resizeParent=1;resizeParentMax=0;resizeLast=0;collapsible=1;marginBottom=0;whiteSpace=wrap;html=1;" parent="1" vertex="1">
          <mxGeometry x="590" y="230" width="220" height="182" as="geometry">
            <mxRectangle x="1010" y="640" width="100" height="30" as="alternateBounds" />
          </mxGeometry>
        </mxCell>
        <mxCell id="v_NWAlwMlRV0HYTp9SGS-209" value="+ ID: Guid" style="text;strokeColor=none;fillColor=none;align=left;verticalAlign=top;spacingLeft=4;spacingRight=4;overflow=hidden;rotatable=0;points=[[0,0.5],[1,0.5]];portConstraint=eastwest;whiteSpace=wrap;html=1;" parent="v_NWAlwMlRV0HYTp9SGS-208" vertex="1">
          <mxGeometry y="26" width="220" height="26" as="geometry" />
        </mxCell>
        <mxCell id="v_NWAlwMlRV0HYTp9SGS-210" value="+ startTimeHour: Int32" style="text;strokeColor=none;fillColor=none;align=left;verticalAlign=top;spacingLeft=4;spacingRight=4;overflow=hidden;rotatable=0;points=[[0,0.5],[1,0.5]];portConstraint=eastwest;whiteSpace=wrap;html=1;" parent="v_NWAlwMlRV0HYTp9SGS-208" vertex="1">
          <mxGeometry y="52" width="220" height="26" as="geometry" />
        </mxCell>
        <mxCell id="v_NWAlwMlRV0HYTp9SGS-211" value="+ startTimeMinute: Int32" style="text;strokeColor=none;fillColor=none;align=left;verticalAlign=top;spacingLeft=4;spacingRight=4;overflow=hidden;rotatable=0;points=[[0,0.5],[1,0.5]];portConstraint=eastwest;whiteSpace=wrap;html=1;" parent="v_NWAlwMlRV0HYTp9SGS-208" vertex="1">
          <mxGeometry y="78" width="220" height="26" as="geometry" />
        </mxCell>
        <mxCell id="kOhIKZBYZZ3AAtpHgBMw-16" value="+ endTimeHour: Int32" style="text;strokeColor=none;fillColor=none;align=left;verticalAlign=top;spacingLeft=4;spacingRight=4;overflow=hidden;rotatable=0;points=[[0,0.5],[1,0.5]];portConstraint=eastwest;whiteSpace=wrap;html=1;" parent="v_NWAlwMlRV0HYTp9SGS-208" vertex="1">
          <mxGeometry y="104" width="220" height="26" as="geometry" />
        </mxCell>
        <mxCell id="kOhIKZBYZZ3AAtpHgBMw-15" value="+ endTimeMinute: Int32" style="text;strokeColor=none;fillColor=none;align=left;verticalAlign=top;spacingLeft=4;spacingRight=4;overflow=hidden;rotatable=0;points=[[0,0.5],[1,0.5]];portConstraint=eastwest;whiteSpace=wrap;html=1;" parent="v_NWAlwMlRV0HYTp9SGS-208" vertex="1">
          <mxGeometry y="130" width="220" height="26" as="geometry" />
        </mxCell>
        <mxCell id="v_NWAlwMlRV0HYTp9SGS-279" value="+ dayTimeLineID: Guid" style="text;strokeColor=none;fillColor=none;align=left;verticalAlign=top;spacingLeft=4;spacingRight=4;overflow=hidden;rotatable=0;points=[[0,0.5],[1,0.5]];portConstraint=eastwest;whiteSpace=wrap;html=1;" parent="v_NWAlwMlRV0HYTp9SGS-208" vertex="1">
          <mxGeometry y="156" width="220" height="26" as="geometry" />
        </mxCell>
        <mxCell id="v_NWAlwMlRV0HYTp9SGS-213" value="tml.TimeLineTypePropertyType" style="swimlane;fontStyle=0;childLayout=stackLayout;horizontal=1;startSize=26;fillColor=none;horizontalStack=0;resizeParent=1;resizeParentMax=0;resizeLast=0;collapsible=1;marginBottom=0;whiteSpace=wrap;html=1;" parent="1" vertex="1">
          <mxGeometry x="1150.0000000000002" y="600" width="220" height="104" as="geometry">
            <mxRectangle x="1010" y="640" width="100" height="30" as="alternateBounds" />
          </mxGeometry>
        </mxCell>
        <mxCell id="v_NWAlwMlRV0HYTp9SGS-243" value="+ ID: Guid" style="text;strokeColor=none;fillColor=none;align=left;verticalAlign=top;spacingLeft=4;spacingRight=4;overflow=hidden;rotatable=0;points=[[0,0.5],[1,0.5]];portConstraint=eastwest;whiteSpace=wrap;html=1;" parent="v_NWAlwMlRV0HYTp9SGS-213" vertex="1">
          <mxGeometry y="26" width="220" height="26" as="geometry" />
        </mxCell>
        <mxCell id="v_NWAlwMlRV0HYTp9SGS-236" value="+ timeLineTypeID: Guid" style="text;strokeColor=none;fillColor=none;align=left;verticalAlign=top;spacingLeft=4;spacingRight=4;overflow=hidden;rotatable=0;points=[[0,0.5],[1,0.5]];portConstraint=eastwest;whiteSpace=wrap;html=1;" parent="v_NWAlwMlRV0HYTp9SGS-213" vertex="1">
          <mxGeometry y="52" width="220" height="26" as="geometry" />
        </mxCell>
        <mxCell id="v_NWAlwMlRV0HYTp9SGS-237" value="+ propertyTypeID: Guid" style="text;strokeColor=none;fillColor=none;align=left;verticalAlign=top;spacingLeft=4;spacingRight=4;overflow=hidden;rotatable=0;points=[[0,0.5],[1,0.5]];portConstraint=eastwest;whiteSpace=wrap;html=1;" parent="v_NWAlwMlRV0HYTp9SGS-213" vertex="1">
          <mxGeometry y="78" width="220" height="26" as="geometry" />
        </mxCell>
        <mxCell id="v_NWAlwMlRV0HYTp9SGS-253" style="edgeStyle=orthogonalEdgeStyle;rounded=0;orthogonalLoop=1;jettySize=auto;html=1;entryX=0;entryY=0.5;entryDx=0;entryDy=0;exitX=0;exitY=0.5;exitDx=0;exitDy=0;endArrow=none;endFill=0;" parent="1" source="v_NWAlwMlRV0HYTp9SGS-219" target="v_NWAlwMlRV0HYTp9SGS-217" edge="1">
          <mxGeometry relative="1" as="geometry">
            <Array as="points">
              <mxPoint x="872" y="640" />
              <mxPoint x="840" y="640" />
              <mxPoint x="840" y="477" />
            </Array>
          </mxGeometry>
        </mxCell>
        <mxCell id="v_NWAlwMlRV0HYTp9SGS-262" value="1" style="edgeLabel;html=1;align=center;verticalAlign=middle;resizable=0;points=[];movable=0;rotatable=0;deletable=0;editable=0;locked=1;connectable=0;" parent="v_NWAlwMlRV0HYTp9SGS-253" vertex="1" connectable="0">
          <mxGeometry x="-0.8772" relative="1" as="geometry">
            <mxPoint as="offset" />
          </mxGeometry>
        </mxCell>
        <mxCell id="v_NWAlwMlRV0HYTp9SGS-218" value="tml.TimeLineType" style="swimlane;fontStyle=0;childLayout=stackLayout;horizontal=1;startSize=26;fillColor=none;horizontalStack=0;resizeParent=1;resizeParentMax=0;resizeLast=0;collapsible=1;marginBottom=0;whiteSpace=wrap;html=1;" parent="1" vertex="1">
          <mxGeometry x="872.09" y="600" width="220" height="78" as="geometry">
            <mxRectangle x="1010" y="640" width="100" height="30" as="alternateBounds" />
          </mxGeometry>
        </mxCell>
        <mxCell id="v_NWAlwMlRV0HYTp9SGS-219" value="+ ID: Guid" style="text;strokeColor=none;fillColor=none;align=left;verticalAlign=top;spacingLeft=4;spacingRight=4;overflow=hidden;rotatable=0;points=[[0,0.5],[1,0.5]];portConstraint=eastwest;whiteSpace=wrap;html=1;" parent="v_NWAlwMlRV0HYTp9SGS-218" vertex="1">
          <mxGeometry y="26" width="220" height="26" as="geometry" />
        </mxCell>
        <mxCell id="v_NWAlwMlRV0HYTp9SGS-256" value="+ languageKey: string" style="text;strokeColor=none;fillColor=none;align=left;verticalAlign=top;spacingLeft=4;spacingRight=4;overflow=hidden;rotatable=0;points=[[0,0.5],[1,0.5]];portConstraint=eastwest;whiteSpace=wrap;html=1;" parent="v_NWAlwMlRV0HYTp9SGS-218" vertex="1">
          <mxGeometry y="52" width="220" height="26" as="geometry" />
        </mxCell>
        <mxCell id="v_NWAlwMlRV0HYTp9SGS-239" value="tml.PropertyType" style="swimlane;fontStyle=0;childLayout=stackLayout;horizontal=1;startSize=26;fillColor=none;horizontalStack=0;resizeParent=1;resizeParentMax=0;resizeLast=0;collapsible=1;marginBottom=0;whiteSpace=wrap;html=1;" parent="1" vertex="1">
          <mxGeometry x="1432.0000000000002" y="600" width="220" height="104" as="geometry">
            <mxRectangle x="1010" y="640" width="100" height="30" as="alternateBounds" />
          </mxGeometry>
        </mxCell>
        <mxCell id="v_NWAlwMlRV0HYTp9SGS-240" value="+ ID: Guid" style="text;strokeColor=none;fillColor=none;align=left;verticalAlign=top;spacingLeft=4;spacingRight=4;overflow=hidden;rotatable=0;points=[[0,0.5],[1,0.5]];portConstraint=eastwest;whiteSpace=wrap;html=1;" parent="v_NWAlwMlRV0HYTp9SGS-239" vertex="1">
          <mxGeometry y="26" width="220" height="26" as="geometry" />
        </mxCell>
        <mxCell id="v_NWAlwMlRV0HYTp9SGS-241" value="+ languageKey: string" style="text;strokeColor=none;fillColor=none;align=left;verticalAlign=top;spacingLeft=4;spacingRight=4;overflow=hidden;rotatable=0;points=[[0,0.5],[1,0.5]];portConstraint=eastwest;whiteSpace=wrap;html=1;" parent="v_NWAlwMlRV0HYTp9SGS-239" vertex="1">
          <mxGeometry y="52" width="220" height="26" as="geometry" />
        </mxCell>
        <mxCell id="v_NWAlwMlRV0HYTp9SGS-242" value="+ type: enum" style="text;strokeColor=none;fillColor=none;align=left;verticalAlign=top;spacingLeft=4;spacingRight=4;overflow=hidden;rotatable=0;points=[[0,0.5],[1,0.5]];portConstraint=eastwest;whiteSpace=wrap;html=1;" parent="v_NWAlwMlRV0HYTp9SGS-239" vertex="1">
          <mxGeometry y="78" width="220" height="26" as="geometry" />
        </mxCell>
        <mxCell id="v_NWAlwMlRV0HYTp9SGS-251" style="edgeStyle=orthogonalEdgeStyle;rounded=0;orthogonalLoop=1;jettySize=auto;html=1;exitX=0;exitY=0.5;exitDx=0;exitDy=0;entryX=1;entryY=0.5;entryDx=0;entryDy=0;endArrow=none;endFill=0;" parent="1" source="v_NWAlwMlRV0HYTp9SGS-240" target="v_NWAlwMlRV0HYTp9SGS-237" edge="1">
          <mxGeometry relative="1" as="geometry">
            <Array as="points">
              <mxPoint x="1400" y="639" />
              <mxPoint x="1400" y="691" />
            </Array>
          </mxGeometry>
        </mxCell>
        <mxCell id="v_NWAlwMlRV0HYTp9SGS-265" value="0..*" style="edgeLabel;html=1;align=center;verticalAlign=middle;resizable=0;points=[];" parent="v_NWAlwMlRV0HYTp9SGS-251" vertex="1" connectable="0">
          <mxGeometry x="-0.7678" y="1" relative="1" as="geometry">
            <mxPoint x="-6" as="offset" />
          </mxGeometry>
        </mxCell>
        <mxCell id="v_NWAlwMlRV0HYTp9SGS-266" value="1" style="edgeLabel;html=1;align=center;verticalAlign=middle;resizable=0;points=[];" parent="v_NWAlwMlRV0HYTp9SGS-251" vertex="1" connectable="0">
          <mxGeometry x="0.3766" y="1" relative="1" as="geometry">
            <mxPoint x="-9" as="offset" />
          </mxGeometry>
        </mxCell>
        <mxCell id="v_NWAlwMlRV0HYTp9SGS-280" style="edgeStyle=orthogonalEdgeStyle;rounded=0;orthogonalLoop=1;jettySize=auto;html=1;exitX=1;exitY=0.5;exitDx=0;exitDy=0;entryX=0;entryY=0.5;entryDx=0;entryDy=0;endArrow=none;endFill=0;" parent="1" source="v_NWAlwMlRV0HYTp9SGS-219" target="v_NWAlwMlRV0HYTp9SGS-236" edge="1">
          <mxGeometry relative="1" as="geometry">
            <Array as="points">
              <mxPoint x="1120" y="639" />
              <mxPoint x="1120" y="665" />
            </Array>
          </mxGeometry>
        </mxCell>
        <mxCell id="v_NWAlwMlRV0HYTp9SGS-281" value="1" style="edgeLabel;html=1;align=center;verticalAlign=middle;resizable=0;points=[];" parent="v_NWAlwMlRV0HYTp9SGS-280" vertex="1" connectable="0">
          <mxGeometry x="0.6936" relative="1" as="geometry">
            <mxPoint as="offset" />
          </mxGeometry>
        </mxCell>
        <mxCell id="v_NWAlwMlRV0HYTp9SGS-282" value="0..*" style="edgeLabel;html=1;align=center;verticalAlign=middle;resizable=0;points=[];" parent="v_NWAlwMlRV0HYTp9SGS-280" vertex="1" connectable="0">
          <mxGeometry x="-0.5913" y="-1" relative="1" as="geometry">
            <mxPoint as="offset" />
          </mxGeometry>
        </mxCell>
        <mxCell id="kOhIKZBYZZ3AAtpHgBMw-2" value="tml.Property" style="swimlane;fontStyle=0;childLayout=stackLayout;horizontal=1;startSize=26;fillColor=none;horizontalStack=0;resizeParent=1;resizeParentMax=0;resizeLast=0;collapsible=1;marginBottom=0;whiteSpace=wrap;html=1;" parent="1" vertex="1">
          <mxGeometry x="872.0899999999999" y="740" width="220" height="182" as="geometry">
            <mxRectangle x="1010" y="640" width="100" height="30" as="alternateBounds" />
          </mxGeometry>
        </mxCell>
        <mxCell id="kOhIKZBYZZ3AAtpHgBMw-3" value="+ ID: Guid" style="text;strokeColor=none;fillColor=none;align=left;verticalAlign=top;spacingLeft=4;spacingRight=4;overflow=hidden;rotatable=0;points=[[0,0.5],[1,0.5]];portConstraint=eastwest;whiteSpace=wrap;html=1;" parent="kOhIKZBYZZ3AAtpHgBMw-2" vertex="1">
          <mxGeometry y="26" width="220" height="26" as="geometry" />
        </mxCell>
        <mxCell id="kOhIKZBYZZ3AAtpHgBMw-6" value="+ propertyTypeID: Guid" style="text;strokeColor=none;fillColor=none;align=left;verticalAlign=top;spacingLeft=4;spacingRight=4;overflow=hidden;rotatable=0;points=[[0,0.5],[1,0.5]];portConstraint=eastwest;whiteSpace=wrap;html=1;" parent="kOhIKZBYZZ3AAtpHgBMw-2" vertex="1">
          <mxGeometry y="52" width="220" height="26" as="geometry" />
        </mxCell>
        <mxCell id="kOhIKZBYZZ3AAtpHgBMw-8" value="+ eventID: Guid" style="text;strokeColor=none;fillColor=none;align=left;verticalAlign=top;spacingLeft=4;spacingRight=4;overflow=hidden;rotatable=0;points=[[0,0.5],[1,0.5]];portConstraint=eastwest;whiteSpace=wrap;html=1;" parent="kOhIKZBYZZ3AAtpHgBMw-2" vertex="1">
          <mxGeometry y="78" width="220" height="26" as="geometry" />
        </mxCell>
        <mxCell id="kOhIKZBYZZ3AAtpHgBMw-14" value="+ valueString: string" style="text;strokeColor=none;fillColor=none;align=left;verticalAlign=top;spacingLeft=4;spacingRight=4;overflow=hidden;rotatable=0;points=[[0,0.5],[1,0.5]];portConstraint=eastwest;whiteSpace=wrap;html=1;" parent="kOhIKZBYZZ3AAtpHgBMw-2" vertex="1">
          <mxGeometry y="104" width="220" height="26" as="geometry" />
        </mxCell>
        <mxCell id="WHhWkxOroI8ulFib5D3Y-1" value="+ valueInt: Int32" style="text;strokeColor=none;fillColor=none;align=left;verticalAlign=top;spacingLeft=4;spacingRight=4;overflow=hidden;rotatable=0;points=[[0,0.5],[1,0.5]];portConstraint=eastwest;whiteSpace=wrap;html=1;" parent="kOhIKZBYZZ3AAtpHgBMw-2" vertex="1">
          <mxGeometry y="130" width="220" height="26" as="geometry" />
        </mxCell>
        <mxCell id="WHhWkxOroI8ulFib5D3Y-2" value="+ valueBool: Boolean" style="text;strokeColor=none;fillColor=none;align=left;verticalAlign=top;spacingLeft=4;spacingRight=4;overflow=hidden;rotatable=0;points=[[0,0.5],[1,0.5]];portConstraint=eastwest;whiteSpace=wrap;html=1;" parent="kOhIKZBYZZ3AAtpHgBMw-2" vertex="1">
          <mxGeometry y="156" width="220" height="26" as="geometry" />
        </mxCell>
        <mxCell id="kOhIKZBYZZ3AAtpHgBMw-7" style="edgeStyle=orthogonalEdgeStyle;rounded=0;orthogonalLoop=1;jettySize=auto;html=1;exitX=1;exitY=0.5;exitDx=0;exitDy=0;entryX=1;entryY=0.5;entryDx=0;entryDy=0;endArrow=none;endFill=0;" parent="1" source="v_NWAlwMlRV0HYTp9SGS-240" target="kOhIKZBYZZ3AAtpHgBMw-6" edge="1">
          <mxGeometry relative="1" as="geometry">
            <mxPoint x="1390" y="790" as="targetPoint" />
            <Array as="points">
              <mxPoint x="1680" y="639" />
              <mxPoint x="1680" y="805" />
            </Array>
          </mxGeometry>
        </mxCell>
        <mxCell id="kOhIKZBYZZ3AAtpHgBMw-11" value="1" style="edgeLabel;html=1;align=center;verticalAlign=middle;resizable=0;points=[];" parent="kOhIKZBYZZ3AAtpHgBMw-7" vertex="1" connectable="0">
          <mxGeometry x="-0.8715" y="2" relative="1" as="geometry">
            <mxPoint x="-22" y="-22" as="offset" />
          </mxGeometry>
        </mxCell>
        <mxCell id="kOhIKZBYZZ3AAtpHgBMw-12" value="0..*" style="edgeLabel;html=1;align=center;verticalAlign=middle;resizable=0;points=[];" parent="kOhIKZBYZZ3AAtpHgBMw-7" vertex="1" connectable="0">
          <mxGeometry x="0.9555" y="2" relative="1" as="geometry">
            <mxPoint as="offset" />
          </mxGeometry>
        </mxCell>
        <mxCell id="kOhIKZBYZZ3AAtpHgBMw-9" style="edgeStyle=orthogonalEdgeStyle;rounded=0;orthogonalLoop=1;jettySize=auto;html=1;entryX=0;entryY=0.5;entryDx=0;entryDy=0;endArrow=none;endFill=0;" parent="1" source="kOhIKZBYZZ3AAtpHgBMw-8" target="v_NWAlwMlRV0HYTp9SGS-209" edge="1">
          <mxGeometry relative="1" as="geometry">
            <Array as="points">
              <mxPoint x="560" y="831" />
              <mxPoint x="560" y="269" />
            </Array>
          </mxGeometry>
        </mxCell>
        <mxCell id="kOhIKZBYZZ3AAtpHgBMw-10" value="1" style="edgeLabel;html=1;align=center;verticalAlign=middle;resizable=0;points=[];" parent="kOhIKZBYZZ3AAtpHgBMw-9" vertex="1" connectable="0">
          <mxGeometry x="0.513" y="-4" relative="1" as="geometry">
            <mxPoint x="6" y="-189" as="offset" />
          </mxGeometry>
        </mxCell>
        <mxCell id="kOhIKZBYZZ3AAtpHgBMw-13" value="0..*" style="edgeLabel;html=1;align=center;verticalAlign=middle;resizable=0;points=[];" parent="kOhIKZBYZZ3AAtpHgBMw-9" vertex="1" connectable="0">
          <mxGeometry x="-0.9546" y="2" relative="1" as="geometry">
            <mxPoint as="offset" />
          </mxGeometry>
        </mxCell>
      </root>
    </mxGraphModel>
  </diagram>
</mxfile>
